<svg viewBox="0 0 16 16" fill="none" xmlns="http://www.w3.org/2000/svg" id="Android--Streamline-Unicons" height="16" width="16">
  <desc>
    Android Streamline Icon: https://streamlinehq.com
  </desc>
  <path d="m9.983533333333334 2.0125666666666664 0.6398666666666666 -1.1543933333333332c0.008266666666666665 -0.014806666666666666 0.013466666666666665 -0.031093333333333334 0.015399999999999999 -0.047913333333333336 0.0018666666666666666 -0.016826666666666663 0.00046666666666666666 -0.03386666666666666 -0.0042 -0.05014 -0.004666666666666666 -0.01628 -0.012466666666666668 -0.031479999999999994 -0.023 -0.04473333333333333 -0.010533333333333334 -0.013253333333333332 -0.0236 -0.024300000000000002 -0.0384 -0.03250666666666666 -0.029933333333333333 -0.016583333333333332 -0.0652 -0.020603999999999997 -0.09806666666666666 -0.011179999999999999 -0.03286666666666666 0.009426666666666667 -0.06066666666666666 0.03152666666666666 -0.07726666666666666 0.061433333333333326l-0.6469333333333334 1.1671866666666666c-0.5519999999999999 -0.2419933333333333 -1.1481999999999999 -0.36693333333333333 -1.7509333333333332 -0.36693333333333333 -0.6027333333333333 0 -1.1989333333333332 0.12494 -1.75092 0.36693333333333333L5.602093333333333 0.7331333333333332c-0.016579999999999998 -0.029906666666666665 -0.044366666666666665 -0.05200666666666666 -0.07724 -0.061433333333333326 -0.03287333333333333 -0.009423999999999998 -0.06814666666666666 -0.005403333333333333 -0.09806 0.011179999999999999 -0.029906666666666665 0.016579999999999998 -0.05200666666666666 0.04436 -0.061433333333333326 0.07724 -0.00942 0.03287333333333333 -0.005399999999999999 0.06814666666666666 0.011179999999999999 0.09805333333333333l0.6398999999999999 1.1543999999999999c-0.6091133333333333 0.30024666666666666 -1.1237733333333333 0.7624466666666666 -1.4875266666666667 1.3358999999999999 -0.36375333333333326 0.57346 -0.5625466666666666 1.2360133333333332 -0.57458 1.915h8.091333333333333c-0.012066666666666667 -0.6789866666666666 -0.2108 -1.3415466666666664 -0.5746 -1.915 -0.3637333333333333 -0.57346 -0.8784000000000001 -1.03566 -1.4875333333333334 -1.3359066666666666Zm-3.8508066666666663 1.7704c-0.06682666666666666 0 -0.13214666666666666 -0.019813333333333332 -0.18770666666666663 -0.05694 -0.05556666666666666 -0.03712666666666667 -0.09887333333333333 -0.08989333333333333 -0.12444 -0.15162666666666666 -0.02557333333333333 -0.061739999999999996 -0.032266666666666666 -0.1296733333333333 -0.019226666666666666 -0.19521333333333335 0.013033333333333334 -0.06553999999999999 0.045213333333333335 -0.12574 0.09246666666666666 -0.17299333333333333 0.047246666666666666 -0.04725333333333333 0.10745333333333332 -0.07943333333333333 0.17299333333333333 -0.09246666666666666 0.06553999999999999 -0.01304 0.13347333333333333 -0.006346666666666667 0.19520666666666667 0.019226666666666666 0.061739999999999996 0.02557333333333333 0.11450666666666666 0.06888 0.15163333333333334 0.12444 0.03712666666666667 0.05556 0.05694 0.12088666666666666 0.05694 0.18770666666666663 -0.00009999999999999999 0.08957999999999999 -0.035726666666666664 0.17545999999999998 -0.09907333333333332 0.2388 -0.06334 0.06334 -0.14922 0.09896666666666666 -0.23879333333333333 0.09906666666666666Zm3.73454 0c-0.06686666666666666 0 -0.13219999999999998 -0.019813333333333332 -0.18773333333333334 -0.05694 -0.05553333333333333 -0.03712666666666667 -0.09886666666666666 -0.08989333333333333 -0.12446666666666667 -0.15162666666666666 -0.02553333333333333 -0.061739999999999996 -0.0322 -0.1296733333333333 -0.0192 -0.19521333333333335 0.013066666666666666 -0.06553999999999999 0.0452 -0.12574 0.09246666666666666 -0.17299333333333333 0.047266666666666665 -0.04725333333333333 0.10746666666666667 -0.07943333333333333 0.173 -0.09246666666666666 0.06553333333333333 -0.01304 0.13346666666666665 -0.006346666666666667 0.19519999999999998 0.019226666666666666 0.061733333333333335 0.02557333333333333 0.11453333333333333 0.06888 0.15166666666666667 0.12444 0.037066666666666664 0.05556 0.056933333333333336 0.12088666666666666 0.056933333333333336 0.18770666666666663 -0.00013333333333333334 0.08957999999999999 -0.03573333333333333 0.17545999999999998 -0.09906666666666666 0.2388 -0.06333333333333332 0.06334 -0.14926666666666666 0.09896666666666666 -0.2388 0.09906666666666666ZM3.954273333333333 11.447666666666667c0 0.25939999999999996 0.10304666666666668 0.5081333333333333 0.2864733333333333 0.6916 0.18342666666666665 0.1834 0.4322066666666667 0.28646666666666665 0.6916133333333333 0.28646666666666665h0.6490666666666667v2.0006c-0.0003266666666666666 0.11933333333333332 0.022899999999999997 0.23753333333333332 0.06833333333333333 0.34786666666666666 0.04543333333333333 0.11033333333333334 0.11218666666666667 0.2106 0.19643999999999998 0.29506666666666664 0.08425333333333332 0.08446666666666666 0.18434666666666666 0.15153333333333333 0.2945466666666666 0.19726666666666665s0.22834 0.06926666666666667 0.34764666666666666 0.06926666666666667c0.11931333333333333 0 0.23747333333333334 -0.02353333333333333 0.34767333333333333 -0.06926666666666667 0.11019999999999999 -0.04573333333333333 0.21026666666666666 -0.11279999999999998 0.2945333333333333 -0.19726666666666665s0.151 -0.18473333333333333 0.19646666666666668 -0.29506666666666664c0.045399999999999996 -0.11033333333333334 0.0686 -0.2285333333333333 0.06826666666666667 -0.34786666666666666v-2.0006h1.2092666666666667v2.0006c-0.0003333333333333333 0.11933333333333332 0.022933333333333333 0.23753333333333332 0.06833333333333333 0.34786666666666666 0.04546666666666666 0.11033333333333334 0.1122 0.2106 0.19646666666666668 0.29506666666666664 0.0842 0.08446666666666666 0.18433333333333335 0.15153333333333333 0.2945333333333333 0.19726666666666665s0.22833333333333333 0.06926666666666667 0.3476666666666666 0.06926666666666667c0.11926666666666666 0 0.2374 -0.02353333333333333 0.34759999999999996 -0.06926666666666667 0.11019999999999999 -0.04573333333333333 0.21033333333333332 -0.11279999999999998 0.2946 -0.19726666666666665 0.0842 -0.08446666666666666 0.151 -0.18473333333333333 0.19639999999999996 -0.29506666666666664 0.04546666666666666 -0.11033333333333334 0.06866666666666665 -0.2285333333333333 0.06833333333333333 -0.34786666666666666v-2.0006h0.6491333333333333c0.25939999999999996 0 0.5081333333333333 -0.10306666666666665 0.6916 -0.28646666666666665 0.1834 -0.18346666666666667 0.28646666666666665 -0.4322 0.28646666666666665 -0.6916V5.58354H3.954273333333333v5.864126666666666ZM2.7094199999999997 5.427933333333333c-0.24046 0.00027333333333333333 -0.47099333333333326 0.09592 -0.6410199999999999 0.2659533333333333 -0.17003333333333331 0.17002666666666666 -0.2656733333333333 0.40056 -0.26594666666666666 0.6410199999999999v3.77896c-0.0003266666666666666 0.11933333333333332 0.022899999999999997 0.23753333333333332 0.06833333333333333 0.34786666666666666 0.04543333333333333 0.11033333333333334 0.11218666666666667 0.2106 0.19643999999999998 0.29506666666666664 0.08425333333333332 0.08446666666666666 0.18434666666666666 0.15153333333333333 0.2945466666666666 0.19726666666666665s0.22834 0.06926666666666667 0.34764666666666666 0.06926666666666667c0.11931333333333333 0 0.23745333333333332 -0.02353333333333333 0.34765333333333337 -0.06926666666666667 0.11019999999999999 -0.04573333333333333 0.21029333333333333 -0.11279999999999998 0.2945466666666666 -0.19726666666666665s0.15100666666666665 -0.18473333333333333 0.19643999999999998 -0.29506666666666664c0.04543333333333333 -0.11033333333333334 0.06865333333333333 -0.2285333333333333 0.06833333333333333 -0.34786666666666666V6.334906666666666c-0.00027333333333333333 -0.24046 -0.09591333333333332 -0.47099333333333326 -0.26594666666666666 -0.6410266666666666s-0.4005666666666666 -0.2656733333333333 -0.6410266666666666 -0.26594666666666666Zm10.581113333333333 0c-0.24046666666666666 0.00027333333333333333 -0.471 0.09591333333333332 -0.641 0.26594666666666666 -0.17006666666666664 0.17003333333333331 -0.26566666666666666 0.4005666666666666 -0.2659333333333333 0.6410266666666666v3.77896c-0.0003333333333333333 0.11933333333333332 0.022866666666666664 0.23753333333333332 0.06833333333333333 0.34786666666666666 0.045399999999999996 0.11033333333333334 0.1122 0.2106 0.19639999999999996 0.29506666666666664 0.08426666666666667 0.08446666666666666 0.18433333333333335 0.15153333333333333 0.2945333333333333 0.19726666666666665s0.2284 0.06926666666666667 0.3476666666666666 0.06926666666666667c0.11933333333333332 0 0.23746666666666666 -0.02353333333333333 0.3476666666666666 -0.06926666666666667 0.11019999999999999 -0.04573333333333333 0.21026666666666666 -0.11279999999999998 0.2945333333333333 -0.19726666666666665s0.151 -0.18473333333333333 0.19646666666666668 -0.29506666666666664c0.045399999999999996 -0.11033333333333334 0.06866666666666665 -0.2285333333333333 0.06833333333333333 -0.34786666666666666V6.334906666666666c-0.0002666666666666667 -0.24046 -0.09593333333333333 -0.47099333333333326 -0.2659333333333333 -0.6410199999999999 -0.17006666666666664 -0.17003333333333331 -0.40059999999999996 -0.26567999999999997 -0.6410666666666667 -0.2659533333333333Z" fill="#10b51c" stroke-width="0.6667"></path>
</svg>